<?xml version="1.0" encoding="utf-8"?>
<!-- Generator: Adobe Illustrator 26.3.1, SVG Export Plug-In . SVG Version: 6.00 Build 0)  -->
<svg version="1.1" id="图层_1" xmlns="http://www.w3.org/2000/svg" xmlns:xlink="http://www.w3.org/1999/xlink" x="0px" y="0px"
	 viewBox="0 0 700 700" style="enable-background:new 0 0 700 700;" xml:space="preserve">
<path d="M511.4,441.6c6.6,4,12.9,8.6,18.8,13.6c0.6,0.5,4.1,3.6,2.8,2.5s1.9,2,2.6,2.6c2.6,2.7,5.1,5.5,7.5,8.3
	c2.1,2.6,4.2,5.4,6.1,8.1c0.7,1.2,2.8,4.2,1,1.3c1.1,1.6,2,3.3,3,5c3.3,5.9,6.2,12.1,8.6,18.5c0.5,1.5,1.1,3,1.6,4.6
	c-1.1-3.3-0.1-0.3,0.3,1.3c1,3.3,1.7,6.7,2.4,10.2c0.6,3.1,1.1,6.3,1.5,9.5c0.2,1.6,0.3,3.2,0.5,4.8c0.2,1.6,0.2,6,0.2,1.8
	c0.2,6.6-0.1,13.3-0.7,19.9c-0.3,3.2-0.9,6.3-1.4,9.5c-0.3,1.6-0.6,3.1-1,4.7c-0.4,2.4,0.2-1.2,0.3-1.3c-0.3,1.1-0.5,2-0.7,3.1
	c-1.7,6.5-3.9,12.8-6.5,18.9c-1.3,3-2.7,5.8-4.1,8.7c-1,2,0.4-0.9,0.5-1c-0.4,0.7-0.7,1.4-1.2,2.1c-1,1.6-1.8,3.2-2.9,4.8
	c-3.7,5.9-7.8,11.6-12.3,16.9c-1,1.2-3.2,3.6-0.9,1.1c-1.1,1.2-2.2,2.4-3.4,3.5c-2.5,2.5-5.1,4.9-7.8,7.2s-5.1,4.2-7.8,6.1
	c-1.4,1-2.7,1.9-4.1,2.9c-1.8,1.3,0.5-0.3,0.7-0.5c-1,0.6-1.9,1.2-2.9,1.7c-6.2,3.6-12.6,6.8-19.3,9.3c-1.6,0.6-3.3,1.2-4.9,1.8
	c-2.1,0.7,0.4-0.1,0.7-0.2c-0.9,0.2-1.7,0.5-2.6,0.7c-3.7,1.1-7.6,2-11.5,2.8c-9.3,1.7-18.8,2.8-28.3,3.2
	c-27.4,1.5-54.8-0.3-81.8-5.1c-12.7-2.2-25.2-5.2-37.6-8.9c-6.4-1.9-12.8-4.1-19.3-6.3c-3.2-1.2-6.3-2.4-9.4-3.5
	c-1.3-0.5-2.7-1.1-4-1.6c-1.6-0.6-5.7-3.5-2.1-0.3l6.5,7.8c-11.3-20.2-20.8-41.4-28.3-63.4c-8.1-21.4-12.2-44.2-12.1-67.1
	c1.4-41.9,16.3-82.3,42.5-115.1c14.1-17.4,30.9-32.4,49.9-44.3l-28.2-2.5c10.2,13.7,21.8,26.2,34.7,37.5
	c5.9,5.3,12.1,10.2,18.6,14.8c7,6.2,15.3,10.6,24.3,13l-9.7-3.6c38.9,23.2,83.5,34.7,128.8,33.3l-9.7-3.6l2,1.2
	c9.1,6.1,21.3,4,27.8-4.7c6.3-9,4.2-21.4-4.7-27.8c-11.5-6.9-24.8-4.3-37.8-5.2c-10.6-0.7-21.2-2.4-31.6-4.8
	c-10.8-2.7-21.4-6.3-31.7-10.8c-4.3-1.8-8.5-3.7-12.6-5.9c-5.1-3.7-11-6.3-17.1-7.7l9.7,3.6c-23.5-14-44-32.6-60.3-54.6
	c-7.2-8.2-19.6-9.3-28.2-2.5c-61.2,39.9-100.4,105.9-106.1,178.7c-1.6,20.6,0.2,41.4,5.2,61.4c5,20.2,11.6,40,19.7,59.2
	c3.3,7.9,7,15.7,10.8,23.3c2.1,4.1,4.2,8.2,6.5,12.3c3.2,6.3,8.5,11.2,15.1,13.8c17.7,7.6,36.1,13.7,54.9,18
	c41.9,10.3,85.2,13.8,128.2,10.5c27.8-1.8,54.8-10.7,78.2-25.8c40.2-27.2,65.8-71.2,69.7-119.6c4.8-57.9-23.3-113.5-72.8-144
	c-8.7-6.8-21.2-5.4-28.1,3.3c-6.8,8.7-5.4,21.2,3.3,28.1c0.1,0.1,0.2,0.2,0.4,0.3l0.6,0.5l0.7,0.5L511.4,441.6z"/>
<path d="M522.7,404.2c-10.4,0.5-20.8,0.2-31.1-0.9c-5-0.5-10.2-1.2-15.1-2c-2.5-0.4-4.9-0.9-7.4-1.4l0,0l-4.2-1
	c-9.6-2.5-18.9-5.6-28-9.3c-4.5-1.8-9-3.9-13.3-6c-0.5-0.2-5.6-2.9-2.8-1.4c-2.5-1.3-4.8-2.7-7.2-4.1c-4.5,12.1-8.9,24.1-13.4,36.2
	c10.4-0.5,20.7-0.2,31,0.9c5,0.5,10.2,1.2,15.2,2c2.5,0.4,4.9,0.9,7.4,1.4l0,0l4.2,1c9.6,2.5,19,5.6,28.2,9.3c4.5,1.8,9,3.9,13.4,6
	c0.5,0.2,5.6,2.9,2.8,1.4c2.5,1.3,4.8,2.7,7.2,4.1c9,6.1,21.3,4,27.8-4.7c6.3-9,4.2-21.4-4.7-27.8c-38.8-23.2-83.5-34.8-128.8-33.3
	c-8.9-0.5-17.1,4.6-20.4,12.8c-3.1,8.5-0.2,18,7.2,23.2c38.8,23.2,83.5,34.8,128.8,33.3c10.9,0.7,20.3-7.3,21.6-18.1
	c0.4-9.6-7-22-18.1-21.6L522.7,404.2z"/>
<path d="M518.9,190.5c-63.7-4.4-121.4-39-155.3-93.1l4.6,14.6c3.6-16.1,9.1-31.6,16.5-46.3c3.1-6.2,6.6-12.3,10.5-18.1
	c5.9-9,13.2-17,10.7-28.6C403,6.3,390.8-1.9,378,0.4c-9.4,2-18.7,4.8-27.6,8.3c-15.9,5.3-31.5,11.7-46.6,19.2
	c-56.2,27.8-105.1,68.5-142.6,118.8C122.7,199.5,97.5,261,88.1,325.8c-10.1,66.9-2,135.3,23.6,198c29.9,69.1,94.5,115.9,161.9,144.9
	c10.5,3.7,22-1.9,25.7-12.4c1.7-4.8,1.5-10.1-0.6-14.8c-12-21.2-21.8-43.5-29.3-66.7c-3.9-12.4-7.1-24.9-9.6-37.7
	c-2.1-12.7-2.2-25.7-0.5-38.4c4.2-43.2,22.6-83.8,52.4-115.3c17.9-18.6,39.3-33.6,62.9-44.1l-10.3,1.8c59,6.4,118.3-9.4,166.2-44.4
	c11-7.1,20.6-16.1,28.4-26.7c6.6-10.6,9.2-23.1,7.5-35.4C562.8,210.7,543.1,192.4,518.9,190.5c-11-0.7-20.5,7.6-21.2,18.6
	c-0.7,10.6,7.1,19.8,17.6,21c0.6,0,6.4,1.5,2.4,0.2c0.5,0.2,5.9,2.6,2,0.4c1.5,0.9,2.9,1.9,4.3,3c-3.3-2.8,0.5,1.1,1,1.5l1,1.4
	c-1.3-1.9-1.3-1.8-0.2,0.2c0.5,5.5-0.3-4,0.6,1.5c0.4,1.7,0.6,3.3,0.7,5c-0.3-4.8-0.5,2.2-0.7,3.3c1.1-4.6-0.6,0.9-1,1.5
	c1.6-3.7-1,1.2-1.4,1.7c-3.2,4.3,3-2.1-2.5,2.4c-1.4,1.2-2.7,2.4-4.1,3.5c-8.3,7.2-17.2,13.6-26.5,19.3
	c-18.5,11-38.6,18.9-59.6,23.3c-10.3,2.2-20.8,3.6-31.4,4.2c-5.8,0.3-11.6,0.1-17.3-0.1c-8.3-1.6-16.9-1.4-25.2,0.6
	c-20.4,8.5-39.2,20.3-55.8,34.9c-15.4,13-29.1,28-40.8,44.4c-25.5,36.3-40.2,79.1-42.4,123.4c-0.9,14.7,0.1,29.5,3,44
	c2.7,12.2,6,24.2,9.7,36.2c8,25.1,18.5,49.3,31.3,72.4l25-27.2c-46.9-20.2-93.5-50.5-122.9-93.1c-27.8-40.5-38.5-94.3-40.6-142.7
	c-5.5-131.7,62.7-255.5,177-321.2c12.9-7.3,26.2-13.9,39.9-19.7c7.3-3,14.6-5.9,22-8.5c3-1.1,6.1-2,9.1-3c1.4-0.4,2.9-0.9,4.3-1.3
	c-0.3,0,6.9-2.1,5.2-2.1l-9.7-3.6l-1.1-1.1l-4.3-9.2l0.2,1.8l1-10.6c-0.5,1.2-3.9,5.1-5.1,7.1c-2.1,3.3-4.3,6.7-6.2,10.2
	c-3.6,6.4-7.2,13-10.3,19.6c-5.8,12.1-10.4,24.7-13.7,37.7c-3.7,8.5-4.5,17.9-2,26.9c3.9,7.1,8.4,13.8,13.7,20
	c7.7,10.2,16.4,19.6,25.8,28.3c39.8,37.2,91.3,59.6,145.7,63.3c25.6,1.7,29.2-38,3.5-39.7"/>
</svg>
