<?xml version="1.0" encoding="utf-8"?>
<!-- Generator: Adobe Illustrator 26.3.1, SVG Export Plug-In . SVG Version: 6.00 Build 0)  -->
<svg version="1.1" id="图层_1" xmlns="http://www.w3.org/2000/svg" xmlns:xlink="http://www.w3.org/1999/xlink" x="0px" y="0px"
	 viewBox="0 0 24 24" style="enable-background:new 0 0 24 24;" xml:space="preserve">
<path d="M20.7,7.1c-2.4,0-4.4-1.7-4.9-4c-0.1-0.3-0.1-0.6-0.1-0.9h-3.2v13.7c0,1.6-1.3,2.9-2.9,2.9c-1.6,0-2.9-1.3-2.9-2.9
	c0-1.6,1.3-2.9,2.9-2.9l0,0c0.3,0,0.6,0,0.9,0.1V9.7c-2.1-0.3-4.2,0.4-5.6,2c-2.2,2.4-2,6.1,0.3,8.4c0.2,0.2,0.4,0.4,0.6,0.5
	c2.5,1.9,6,1.7,8.2-0.5c1.2-1.1,1.8-2.7,1.8-4.3l0-7.2c1.4,1.1,3.2,1.7,5,1.7L20.7,7.1C20.7,7.1,20.7,7.1,20.7,7.1L20.7,7.1z"/>
</svg>
