<svg id="图层_1" data-name="图层 1" xmlns="http://www.w3.org/2000/svg" viewBox="0 0 24 24"><path d="M20.834,19a5.279,5.279,0,0,0,2.322-4.234c0-3.088-3.009-5.6-6.72-5.6s-6.721,2.507-6.721,5.6,3.01,5.6,6.721,5.6a7.909,7.909,0,0,0,2.194-.308l.2-.029a.692.692,0,0,1,.357.1l1.472.849.13.042a.223.223,0,0,0,.223-.223h0l-.036-.164-.3-1.132-.023-.143A.443.443,0,0,1,20.834,19ZM8.908,2.98C4.455,2.98.844,5.988.844,9.7A6.325,6.325,0,0,0,3.63,14.78a.535.535,0,0,1,.226.439l-.027.17-.364,1.356-.044.2a.269.269,0,0,0,.268.27h0l.156-.049,1.765-1.02a.852.852,0,0,1,.428-.125l.237.036a9.565,9.565,0,0,0,2.632.369l.443-.011a5.232,5.232,0,0,1-.274-1.646c0-3.385,3.293-6.13,7.354-6.13l.438.012C16.266,5.436,12.931,2.98,8.908,2.98ZM14.2,13.867a.9.9,0,1,1,.9-.9.9.9,0,0,1-.9.9Zm4.481,0a.9.9,0,1,1,.9-.9h0a.894.894,0,0,1-.894.9ZM6.22,8.625A1.076,1.076,0,1,1,7.3,7.549v0A1.074,1.074,0,0,1,6.221,8.625Zm5.377,0a1.076,1.076,0,1,1,1.075-1.076v0A1.074,1.074,0,0,1,11.6,8.625Z" style="fill-rule:evenodd"/></svg>