<svg id="Layer_1" data-name="Layer 1" xmlns="http://www.w3.org/2000/svg" viewBox="0 0 288.014 65.399"><path d="M39.943,41.254a13.989,13.989,0,0,1,1.76,1.27c.06.05.38.34.26.23s.18.19.24.24c.24.25.48.51.7.78.2.24.39.5.57.76.07.11.26.39.09.12.1.15.19.31.28.47a11.838,11.838,0,0,1,.8,1.73c.05.14.1.28.15.43-.1-.31-.01-.03.03.12.09.31.16.63.22.95.06.29.1.59.14.89.02.15.03.3.05.45s.02.56.02.17a14.622,14.622,0,0,1-.07,1.86c-.03.3-.08.59-.13.89-.03.15-.06.29-.09.44-.04.22.02-.11.03-.12-.03.1-.05.19-.07.29a12.844,12.844,0,0,1-.61,1.77c-.12.28-.25.54-.38.81-.09.19.04-.08.05-.09-.04.07-.07.13-.11.2-.09.15-.17.3-.27.45a12.648,12.648,0,0,1-1.15,1.58c-.09.11-.3.34-.08.1-.1.11-.21.22-.32.33-.23.23-.48.46-.73.67s-.48.39-.73.57c-.13.09-.25.18-.38.27-.17.12.05-.03.07-.05-.09.06-.18.11-.27.16a11.935,11.935,0,0,1-1.8.87c-.15.06-.31.11-.46.17-.2.07.04-.01.07-.02-.08.02-.16.05-.24.07-.35.1-.71.19-1.07.26a19.186,19.186,0,0,1-2.64.3,33.1,33.1,0,0,1-7.64-.48,29.529,29.529,0,0,1-3.51-.83c-.6-.18-1.2-.38-1.8-.59-.3-.11-.59-.22-.88-.33-.12-.05-.25-.1-.37-.15-.15-.06-.53-.33-.2-.03l.61.73a35.588,35.588,0,0,1-2.64-5.92,17.547,17.547,0,0,1-1.13-6.27,18.238,18.238,0,0,1,3.97-10.75,18.9,18.9,0,0,1,4.66-4.14l-2.63-.23a22.815,22.815,0,0,0,3.24,3.5,19.26,19.26,0,0,0,1.74,1.38,5.494,5.494,0,0,0,2.27,1.21l-.91-.34a22.117,22.117,0,0,0,12.03,3.11l-.91-.34.19.11a1.915,1.915,0,0,0,2.6-.44,1.88,1.88,0,0,0-.44-2.6c-1.07-.64-2.32-.4-3.53-.49a18.249,18.249,0,0,1-2.95-.45,19.055,19.055,0,0,1-2.96-1.01c-.4-.17-.79-.35-1.18-.55a4.436,4.436,0,0,0-1.6-.72l.91.34a19.19,19.19,0,0,1-5.63-5.1,1.914,1.914,0,0,0-2.63-.23,21.988,21.988,0,0,0-9.91,16.7,17.9,17.9,0,0,0,.49,5.74,37.261,37.261,0,0,0,1.84,5.532c.31.74.65,1.47,1.01,2.18.2.38.39.77.61,1.15A2.7,2.7,0,0,0,18,62.626a29.852,29.852,0,0,0,5.13,1.68,38,38,0,0,0,11.98.98,15.358,15.358,0,0,0,7.31-2.41,14.943,14.943,0,0,0,6.51-11.17,14.4,14.4,0,0,0-6.8-13.45,1.867,1.867,0,1,0-2.281,2.956l.059.044.062.044Z"/><path d="M41,37.764a20.053,20.053,0,0,1-2.91-.08c-.47-.05-.95-.11-1.41-.19-.23-.04-.46-.08-.69-.13h0l-.39-.09a19.958,19.958,0,0,1-2.62-.87c-.42-.17-.84-.36-1.24-.56-.05-.02-.52-.27-.26-.13-.23-.12-.45-.25-.67-.38-.42,1.13-.83,2.25-1.25,3.38a20.2,20.2,0,0,1,2.9.08c.47.05.95.11,1.42.19.23.04.46.08.69.13h0l.39.09a20.764,20.764,0,0,1,2.63.87c.42.17.84.36,1.25.56.05.02.52.27.26.13.23.12.45.25.67.38a1.913,1.913,0,0,0,2.6-.44,1.886,1.886,0,0,0-.44-2.6,22.037,22.037,0,0,0-12.03-3.11,1.934,1.934,0,0,0-1.91,1.2,1.874,1.874,0,0,0,.67,2.17,22.018,22.018,0,0,0,12.03,3.11,1.918,1.918,0,0,0,2.02-1.69c.04-.9-.65-2.06-1.69-2.02Z"/><path d="M40.643,17.794a18.618,18.618,0,0,1-14.51-8.7l.43,1.36a18.87,18.87,0,0,1,1.54-4.33,16.719,16.719,0,0,1,.98-1.69c.55-.84,1.23-1.59,1-2.67a2.266,2.266,0,0,0-2.6-1.73,15.587,15.587,0,0,0-2.58.78,34.517,34.517,0,0,0-4.35,1.79A37.076,37.076,0,0,0,7.233,13.7,37.545,37.545,0,0,0,.393,30.44,35.091,35.091,0,0,0,2.6,48.94c2.79,6.46,8.83,10.83,15.13,13.54a1.882,1.882,0,0,0,2.34-2.54,34.2,34.2,0,0,1-2.74-6.23,32.306,32.306,0,0,1-.9-3.52,12.306,12.306,0,0,1-.05-3.59,18.211,18.211,0,0,1,4.9-10.77,18.712,18.712,0,0,1,5.88-4.12l-.96.17a22.232,22.232,0,0,0,15.53-4.15,9.942,9.942,0,0,0,2.65-2.49,4.946,4.946,0,0,0,.7-3.31,4.884,4.884,0,0,0-4.44-4.14,1.863,1.863,0,0,0-.33,3.71c.06,0,.6.14.22.02.05.02.55.24.19.04a2.927,2.927,0,0,1,.4.28c-.31-.26.05.1.09.14l.09.13c-.12-.18-.12-.17-.02.02.05.51-.03-.37.06.14a3.917,3.917,0,0,1,.07.47c-.03-.45-.05.21-.07.31.1-.43-.06.08-.09.14.15-.35-.09.11-.13.16-.3.4.28-.2-.23.22-.13.11-.25.22-.38.33a18.1,18.1,0,0,1-2.48,1.8,18.3,18.3,0,0,1-5.57,2.18,19.274,19.274,0,0,1-2.93.39c-.54.03-1.08.01-1.62-.01a5.48,5.48,0,0,0-2.35.06,19.087,19.087,0,0,0-5.21,3.26,22.4,22.4,0,0,0-3.81,4.15,21.919,21.919,0,0,0-3.96,11.53,15.7,15.7,0,0,0,.28,4.11c.25,1.14.56,2.26.91,3.38a37.045,37.045,0,0,0,2.92,6.76l2.34-2.54c-4.38-1.89-8.74-4.72-11.48-8.7-2.6-3.78-3.6-8.81-3.79-13.33A33.037,33.037,0,0,1,20.293,6.93,35.118,35.118,0,0,1,24.02,5.09c.68-.28,1.36-.55,2.06-.79.28-.1.57-.19.85-.28.13-.04.27-.08.4-.12-.03,0,.64-.2.49-.2l-.91-.34-.1-.1-.4-.86.02.17.09-.99c-.05.11-.36.48-.48.66-.2.31-.4.63-.58.95-.34.6-.67,1.21-.96,1.83a19.244,19.244,0,0,0-1.28,3.52,3.759,3.759,0,0,0-.19,2.51,10.8,10.8,0,0,0,1.28,1.87,20.033,20.033,0,0,0,2.41,2.64,22.141,22.141,0,0,0,13.61,5.91c2.39.16,2.73-3.55.33-3.71"/><path d="M64.813,17.165a.786.786,0,0,1,.786-.786H76.518q5.223,0,7.905,2.227T87.1,25.17a7.951,7.951,0,0,1-1.376,4.8,8.259,8.259,0,0,1-4.1,2.845V33a5.531,5.531,0,0,1,3.114,1.586,5.694,5.694,0,0,1,1.527,3.148L87.29,44.2l.825,3.877a.786.786,0,0,1-.6.933.823.823,0,0,1-.164.017h-5.2a.784.784,0,0,1-.774-.65l-.47-2.661-.861-6.04a6.9,6.9,0,0,0-.712-2.262A3.384,3.384,0,0,0,77.8,36a6.154,6.154,0,0,0-2.681-.5H72.128a.786.786,0,0,0-.786.786h0v11.95a.784.784,0,0,1-.783.787H65.6a.786.786,0,0,1-.786-.786h0Zm14.409,12.1A4.488,4.488,0,0,0,80.366,25.9a4.347,4.347,0,0,0-1.144-3.3,5.229,5.229,0,0,0-3.683-1.084H72.128a.786.786,0,0,0-.786.786h0V29.59a.784.784,0,0,0,.783.787h3.414a5.152,5.152,0,0,0,3.683-1.111Z"/><path d="M92.671,48.237V17.165a.786.786,0,0,1,.786-.786h16.08a.786.786,0,0,1,.786.786h0v3.558a.786.786,0,0,1-.786.786h-9.55a.787.787,0,0,0-.787.785h0V29a.787.787,0,0,0,.787.787h9.083a.787.787,0,0,1,.787.785h0v3.441a.786.786,0,0,1-.786.786H99.987a.787.787,0,0,0-.787.785h0v7.522a.786.786,0,0,0,.786.786H110a.786.786,0,0,1,.786.786h0v3.557a.784.784,0,0,1-.783.787H93.457a.786.786,0,0,1-.786-.786h0Z"/><path d="M115.775,48.237V17.165a.786.786,0,0,1,.786-.786h15.846a.787.787,0,0,1,.787.785h0v3.558a.786.786,0,0,1-.786.786H123.09a.786.786,0,0,0-.786.786h0v7.288a.784.784,0,0,0,.783.787h8.854a.786.786,0,0,1,.786.786V34.6a.786.786,0,0,1-.786.786H123.09a.786.786,0,0,0-.786.786h0V48.237a.784.784,0,0,1-.783.787h-4.96a.786.786,0,0,1-.786-.786h0Z"/><path d="M137.759,48.237V17.165a.786.786,0,0,1,.786-.786H143.5a.786.786,0,0,1,.786.786V43.108a.786.786,0,0,0,.786.786h9.574a.786.786,0,0,1,.786.786v3.557a.784.784,0,0,1-.783.787h-16.1a.786.786,0,0,1-.787-.785h0Z"/><path d="M159.51,48.237V17.165a.786.786,0,0,1,.786-.786h16.08a.786.786,0,0,1,.786.786v3.558a.786.786,0,0,1-.786.786h-9.551a.786.786,0,0,0-.786.786V29a.784.784,0,0,0,.783.787h9.087a.786.786,0,0,1,.786.786v3.441a.786.786,0,0,1-.786.786h-9.084a.786.786,0,0,0-.786.786v7.522a.786.786,0,0,0,.786.786h10.017a.786.786,0,0,1,.786.786v3.557a.784.784,0,0,1-.783.787H160.3a.786.786,0,0,1-.79-.782h0Z"/><path d="M181.045,47.892l7.486-15.312a.782.782,0,0,0,0-.69L181.51,17.51a.784.784,0,0,1,.36-1.05h0a.808.808,0,0,1,.345-.08h5.463a.788.788,0,0,1,.716.46l2.612,5.743,2,4.617h.188l1.981-4.617,2.634-5.745a.787.787,0,0,1,.715-.458h5.255a.786.786,0,0,1,.707,1.131l-7.021,14.38a.788.788,0,0,0,0,.69l7.487,15.312a.786.786,0,0,1-.707,1.132h-5.509a.787.787,0,0,1-.716-.461L195,41.888l-2.006-4.616H192.8l-1.982,4.616-3.054,6.676a.786.786,0,0,1-.715.46h-5.3a.786.786,0,0,1-.7-1.132Z"/><path d="M215.307,48.237V17.165a.785.785,0,0,1,.784-.786h15.848a.786.786,0,0,1,.786.786v3.558a.786.786,0,0,1-.786.786h-9.317a.786.786,0,0,0-.786.786v7.288a.784.784,0,0,0,.783.787h8.853a.786.786,0,0,1,.786.786V34.6a.786.786,0,0,1-.786.786h-8.85a.786.786,0,0,0-.786.786V48.237a.787.787,0,0,1-.787.787h-4.956a.786.786,0,0,1-.786-.786Z"/><path d="M241.068,47.345a9,9,0,0,1-2.4-2.658,10.892,10.892,0,0,1-1.085-2.751A22.946,22.946,0,0,1,237,38.123q-.173-2.226-.174-5.421,0-3.147.174-5.352a22.889,22.889,0,0,1,.583-3.789,11.726,11.726,0,0,1,1.085-2.8,9.047,9.047,0,0,1,2.4-2.694,11.3,11.3,0,0,1,3.568-1.783,16.052,16.052,0,0,1,8.906,0,11.434,11.434,0,0,1,3.569,1.772,8.816,8.816,0,0,1,2.4,2.7,11.011,11.011,0,0,1,1.074,2.774,23.892,23.892,0,0,1,.571,3.8q.174,2.215.174,5.364,0,3.219-.174,5.444a22.512,22.512,0,0,1-.585,3.812,10.409,10.409,0,0,1-1.083,2.729,9.367,9.367,0,0,1-2.425,2.658,11.49,11.49,0,0,1-3.556,1.773,14.926,14.926,0,0,1-4.419.629,15.155,15.155,0,0,1-4.453-.629A11.439,11.439,0,0,1,241.068,47.345Zm12.266-4.967a6.118,6.118,0,0,0,.63-1.865,22.087,22.087,0,0,0,.29-2.915q.083-1.8.081-4.9t-.081-4.9a22.087,22.087,0,0,0-.29-2.915,6.136,6.136,0,0,0-.63-1.865,3.879,3.879,0,0,0-1.609-1.528,5.556,5.556,0,0,0-2.636-.571,5.7,5.7,0,0,0-2.658.571,3.7,3.7,0,0,0-1.609,1.528,6.136,6.136,0,0,0-.63,1.865A21.623,21.623,0,0,0,243.9,27.8q-.083,1.8-.081,4.9,0,3.054.081,4.861a21.768,21.768,0,0,0,.291,2.927,6.118,6.118,0,0,0,.63,1.865,3.747,3.747,0,0,0,1.609,1.539,5.574,5.574,0,0,0,2.658.583,5.451,5.451,0,0,0,2.636-.583A4,4,0,0,0,253.334,42.378Z"/><path d="M264.025,47.892l7.487-15.312a.788.788,0,0,0,0-.69l-7.021-14.38a.784.784,0,0,1,.36-1.05h0a.808.808,0,0,1,.345-.08h5.463a.788.788,0,0,1,.716.46l2.612,5.743,2,4.617h.188l1.981-4.617,2.634-5.745a.787.787,0,0,1,.715-.458h5.255a.786.786,0,0,1,.707,1.131l-7.021,14.38a.788.788,0,0,0,0,.69l7.487,15.312a.786.786,0,0,1-.707,1.132h-5.509a.787.787,0,0,1-.716-.461l-3.031-6.675-2.006-4.616h-.186L273.8,41.888l-3.054,6.676a.786.786,0,0,1-.715.46h-5.3a.786.786,0,0,1-.786-.788A.8.8,0,0,1,264.025,47.892Z"/></svg>